# xmcd CD database file
#
# Track frame offsets:
#	300
#	12453
#	31221
#	40597
#	52021
#	62108
#	80499
#	92927
#	105335
#
# Disc length: 1561 seconds
#
# Revision: 0
# Processed by: cddbd v1.5.2PL0 Copyright (c) Steve Scherf et al.
# Submitted via: CDex 1.51
#
DISCID=6d061509
DTITLE=Johnny Berry and The Outliers - Bourbon Spearmine and Ice
DYEAR=1900
DGENRE=Country
TTITLE0=All the Whiskey In Kentucky
TTITLE1=I Can't Wait to Get You Back Home
TTITLE2=Big Lovin'
TTITLE3=Weekend Willie and Jukebox Charlie
TTITLE4=Who Shot Sam?
TTITLE5=Daisy
TTITLE6=Handwriting on the Wall
TTITLE7=These Days (Those Days Are Gone)
TTITLE8=Green Grass of Kentucky
EXTD=
EXTT0=
EXTT1=
EXTT2=
EXTT3=
EXTT4=
EXTT5=
EXTT6=
EXTT7=
EXTT8=
PLAYORDER=
